<?xml version="1.0" encoding="UTF-8"?>
<svg id="Layer_1" data-name="Layer 1" xmlns="http://www.w3.org/2000/svg" viewBox="0 0 400 400">
  <defs>
    <style>
      .cls-1, .cls-2 {
        fill: #fff;
      }

      .cls-2 {
        font-family: CenturyGothic-Bold, 'Century Gothic';
        font-size: 31.36px;
        font-weight: 700;
      }

      .cls-3 {
        fill-rule: evenodd;
      }

      .cls-3, .cls-4 {
        fill: #5968b0;
      }

      .cls-5 {
        fill: #848fc4;
      }
    </style>
  </defs>
  <circle class="cls-1" cx="200.28" cy="200.01" r="183.48"/>
  <g>
    <g>
      <path class="cls-4" d="M169.11,139.86c10.88-4.01,21.75-8.06,32.65-12.03,23.76-8.67,47.55-17.3,71.32-25.96,20.73-7.55,41.45-15.11,62.17-22.67,.79-.29,1.39-.39,2.09,.42,11.45,13.26,20.98,27.76,28.33,43.67,4.79,10.37,8.66,21.07,11.41,32.16,3.88,15.67,5.78,31.57,5.52,47.73-.02,1.49-.52,2.09-1.86,2.57-20.55,7.44-41.08,14.92-61.62,22.4-27,9.83-54,19.68-81.01,29.51-29.1,10.59-58.2,21.17-87.29,31.76-11.6,4.22-23.2,8.47-34.79,12.71-.23,.08-.45,.21-.84,.39,3.93,3.93,8.1,7.35,12.39,10.63,12.47,9.53,26.07,17.03,40.71,22.69,1.4,.54,2.55,.4,3.85-.07,19.65-7.17,39.31-14.32,58.97-21.48,31.57-11.49,63.15-22.98,94.72-34.5,1.01-.37,1.69-.81,2.24,.73,.52,1.44-.09,1.72-1.14,2.11-23.13,8.42-46.26,16.87-69.4,25.28-25.48,9.27-50.98,18.51-76.47,27.77-1.9,.69-3.8,1.38-5.97,2.17,1.58,1.07,3.27,1.17,4.74,1.79,3.01,1.28,5.8,.98,8.91-.17,25.31-9.34,50.7-18.5,76.05-27.72,21.23-7.72,42.46-15.47,63.71-23.17,.94-.34,2.2-1.47,2.73,.72,.28,1.16,.05,1.49-.97,1.87-21.83,7.89-43.65,15.8-65.46,23.74-24.22,8.81-48.43,17.64-72.64,26.47-.56,.2-1.09,.48-1.88,.83,3.73,1.22,7.38,1.6,10.97,2.12,1.01,.14,2.17-.6,3.24-.99,30.32-11.01,60.63-22.02,90.95-33.04,12.18-4.43,24.36-8.85,36.51-13.33,1.22-.45,1.85-.52,2.43,.91,.69,1.7-.62,1.66-1.42,1.95-27.32,9.95-54.65,19.88-81.98,29.81-13.51,4.91-27.01,9.83-40.51,14.76-.54,.2-1.16,.27-1.61,.88,3.51,.26,6.96,.32,10.35,.81,4.28,.61,7.92-1.23,11.69-2.6,31.95-11.62,63.89-23.29,95.85-34.88,2.82-1.02,4.71-3.11,6.75-5.01,15.78-14.64,28.37-31.62,37.3-51.25,3.64-8,6.71-16.2,9.02-24.68,.74,0,.53,.42,.36,.82-.68,6.39-2.23,12.59-3.86,18.79-4.76,18.08-12.27,34.95-22.28,50.72-11.89,18.72-26.72,34.74-44.45,48.03-18.32,13.74-38.51,23.7-60.62,29.81-18.89,5.22-38.1,7.58-57.65,6.61-16.84-.84-33.31-3.93-49.33-9.31-24.06-8.07-45.48-20.66-64.37-37.56-7.2-6.44-13.89-13.4-19.78-21.08,.93-.38,1.35,.4,1.85,.87,1.23,1.15,2.45,2.33,3.58,3.59,.71,.79,1.16,.81,1.91,.02,2.04-2.16,4.18-4.22,6.29-6.33,11.32-11.32,22.64-22.65,33.97-33.96,.74-.74,1.35-1.75,2.61-1.73,.61,.09,1.21,.03,1.79-.17,5.09-1.81,10.09-3.83,14.57-6.9,2.26-1.55,2.35-2,1.6-4.54-2.4-8.23-4.01-16.63-5.36-25.09-.07-.46-.17-.93-.05-1.4,1.1-.96,1.56,.23,2.07,.73,3.65,3.58,7.28,7.19,10.93,10.92,4.28-4.27,8.53-8.57,12.84-12.79,.56-.55,1.03-1.78,2.26-.94,.61,3.11-.26,6.17-.35,9.25-.13,4.25-.7,8.48-.59,12.74,.03,1.07,.31,1.85,1.54,1.97,2.52,.25,5,.2,7.38-.81,1.93-.81,3.22-2.22,2.94-4.37-.65-5.05-.22-10.12-.59-15.18-.53-7.19-.65-6.5,5.05-9.4,3.26-1.66,6.67-2.98,10.19-3.95,2.27-.62,2.88-.25,3.65,1.95,1.25,3.57,2.32,7.2,4.06,10.6,1.13,2.22,2.7,4.05,4.57,5.63,1.74,1.48,3.77,2.02,6.06,1.55,8.49-1.71,14.67-6.86,19.96-13.34,.67-.82,.58-1.6-.09-2.37-.18-.2-.35-.41-.53-.61-2.29-2.38-1.64-2.85-4.84-.71-2.75,1.84-4.55,1.51-6.58-1.17-2.57-3.38-4.13-7.29-5.63-11.2-3.72-9.72-7.24-19.52-11.05-29.21-.2-.5-.41-1-.39-1.56,.16-.95,.92-1.46,1.53-2.08,4.1-4.12,8.21-8.22,12.32-12.33q1.57-1.57,.05-3.09c-8.93-8.93-17.87-17.86-26.78-26.81-.66-.66-1.76-1.14-1.5-2.41"/>
      <path class="cls-4" d="M169.11,139.86c.52,.61,1.01,1.26,1.58,1.83,9.17,9.19,18.33,18.38,27.55,27.51,1.13,1.12,1.15,1.71,0,2.81-4.87,4.68-9.64,9.47-14.44,14.22-1.34-.59-1.58-1.94-2.09-3.08-1.63-3.65-3.42-7.19-6.02-10.28-.84-1-1.75-1.34-3.03-.97-8.61,2.46-16.88,5.71-24.45,10.58-2.76,1.78-2.8,2.48-.18,4.34,2.65,1.89,3.8,4.45,3.82,7.63,.05,7.83-.53,15.63-1.11,23.44-.4,5.38-.95,10.75-1.34,16.13-.07,.94-.02,1.92-.96,2.53-4.46,4.39-8.96,8.73-13.33,13.21-1.19,1.22-1.8,1.18-2.96-.02-3.63-3.79-7.4-7.45-11.12-11.16-.92-.51-.85-1.49-.98-2.3-1.67-10.48-2.88-21.03-4.78-31.48-.31-1.72,.46-2.51,1.99-2.92,3-.82,6.06-1.39,9.08-2.16,1.52-.39,2.96-.96,4.27-1.82,1.95-1.28,2.55-3.05,1.84-5.27-1.61-5.01-1.56-4.87-6.53-3.08-10.12,3.64-20.35,6.95-30.59,10.21-6.52,2.08-12.9,4.47-18.86,7.86-2.04,1.16-2.07,1.51-.86,3.48,1.03,1.69,2.36,3.12,3.77,4.49,1.01,.98,1.9,1.03,2.99,.08,3.09-2.69,6.67-4.6,10.41-6.21,2.58-1.12,3.15-.82,3.87,1.88,1.79,6.68,2.62,13.53,3.63,20.35,1.95,13.17,3.5,26.41,6.49,39.41,.39,1.71,1.02,3.37,1.32,5.1,.06,.34,0,.67-.29,.92-.6,.55-1.21,1.07-1.78,1.64-13.48,13.47-26.96,26.92-40.39,40.44-1.14,1.14-1.73,1.12-2.82-.01-1.57-1.65-3.01-3.47-4.97-4.71-3.96-4.52-7.37-9.46-10.65-14.47-9.26-14.13-16.46-29.26-21.47-45.39-3.92-12.6-6.43-25.47-7.61-38.63-1.02-11.34-1-22.67,.15-33.97,1.63-15.96,5.18-31.5,10.9-46.53,4.94-12.97,11.19-25.28,18.92-36.8,16.51-24.61,37.72-44.12,63.67-58.49,15.99-8.86,32.95-15.18,50.8-18.91,15.18-3.17,30.58-4.57,46.09-3.69,15.41,.87,30.55,3.38,45.29,8.06,0,.09,.01,.18,.02,.27-4.69-.56-9.37-1.14-14.06-1.68-9.1-1.04-18.21-.97-27.32-.28-12.77,.97-25.26,3.42-37.42,7.43-18.12,5.98-34.66,14.89-49.91,26.95,1.38,.12,2.23-.57,3.17-.85,1.03-.3,2.05-.69,3.02-1.16,1.13-.54,1.57-.18,2.01,.94,.49,1.24,.07,1.6-1.01,1.98-4.08,1.42-8.11,2.98-12.19,4.38-1.7,.58-3.13,1.44-4.44,2.68-2.75,2.59-5.48,5.18-8.29,8.53,5.4-1.96,10.26-3.72,15.12-5.48,3.87-1.41,7.74-2.8,11.6-4.23,.98-.37,1.72-.83,2.33,.67,.66,1.63-.34,1.83-1.35,2.2-10.08,3.67-20.16,7.36-30.25,10.99-1.25,.45-2.26,1.04-3.08,2.11-1.84,2.4-3.78,4.73-5.49,7.46,3.12-1.12,6.25-2.23,9.37-3.36,10.58-3.86,21.16-7.73,31.74-11.6,.85-.31,1.61-.91,2.13,.64,.49,1.46,.02,1.8-1.22,2.25-14.65,5.31-29.27,10.7-43.92,16.01-1.29,.47-2.21,1.15-2.91,2.3-1.27,2.06-2.61,4.07-3.94,6.12,.72,.6,1.26,.1,1.75-.08,17.19-6.24,34.37-12.5,51.55-18.78,.91-.33,1.47-.36,1.78,.74,.28,1,.71,1.67-.83,2.23-12.07,4.3-24.1,8.74-36.14,13.13-6.4,2.33-12.78,4.69-19.2,6.96-1.24,.44-2.05,1.14-2.62,2.3-.98,1.99-2.03,3.94-3.29,6.35,3.8-1.37,7.18-2.59,10.56-3.82,17.43-6.37,34.85-12.74,52.27-19.11,1.04-.38,2-.89,2.5,.79,.34,1.14,.2,1.63-.98,2.04-8.26,2.94-16.5,5.94-24.74,8.93-13.32,4.83-26.64,9.67-39.97,14.48-1.02,.37-1.71,.91-2.11,1.96-.73,1.92-1.57,3.81-2.48,5.98,2.67-.41,4.79-1.46,6.97-2.25,21.37-7.76,42.72-15.55,64.07-23.37,1.07-.39,1.76-.65,2.33,.77,.61,1.52-.29,1.72-1.27,2.08-16.35,5.96-32.7,11.92-49.05,17.88-7.8,2.84-15.6,5.67-23.4,8.51-.64,.23-1.26,.46-1.51,1.21-.69,2.09-1.4,4.16-2.24,6.66,5-1.81,9.6-3.47,14.19-5.14,21.37-7.78,42.73-15.56,64.1-23.32,.8-.29,1.64-.99,2.21,.52,.5,1.33,.27,1.86-1.07,2.32-5.99,2.09-11.94,4.27-17.91,6.44-20.42,7.42-40.82,14.86-61.25,22.24-1.03,.37-1.54,.92-1.76,1.93-.4,1.81-1.14,3.56-1.22,5.69,6.33-2.3,12.46-4.53,18.6-6.77,21.93-7.99,43.87-15.96,65.79-23.99,1.23-.45,1.61-.13,2.04,.94,.49,1.21,.07,1.56-1.04,1.96-23.39,8.5-46.77,17.03-70.15,25.56-4.94,1.8-9.88,3.63-14.85,5.38-1.09,.38-1.63,.96-1.77,2.13-.19,1.6-.59,3.18-.91,4.78,.79,.59,1.45-.01,2.08-.24,20.86-7.56,41.72-15.13,62.58-22.7,8.31-3.02,16.62-6.02,24.92-9.06,1.01-.37,1.67-.8,2.22,.74,.52,1.44-.07,1.72-1.13,2.1-14.26,5.17-28.51,10.37-42.76,15.55-15.72,5.71-31.44,11.41-47.17,17.1-.72,.26-1.47,.5-1.51,1.4-.09,1.87-.75,3.7-.49,5.83,4.79-1.74,9.47-3.43,14.14-5.13,26.56-9.67,53.12-19.33,79.67-29.01,1.06-.39,1.83-.84,2.4,.79,.57,1.62-.28,1.77-1.37,2.16-30.82,11.17-61.62,22.39-92.46,33.49-2.22,.8-3.35,1.86-3.18,4.22,.07,1,.01,2.02,.01,3.18,2.18-.37,4.16-1.34,6.2-2.08,32.2-11.7,64.39-23.42,96.59-35.13,.57-.21,1.16-.34,1.75-.51"/>
      <path class="cls-4" d="M313.79,261.17c.19,1.05,.31,1.99,.55,2.9,.25,.93-.11,1.42-.96,1.64-1.1,.29-1.02-.68-1.17-1.23-.21-.77-.18-1.61-.35-2.4-.09-.39,0-1.12-.67-1.03-.65,.09-.75,.69-.66,1.27,.16,1,.23,2.02,.51,2.99,.3,1.01-.19,1.38-.98,1.62-1.15,.35-.95-.67-1.11-1.2-.43-1.46-.3-2.99-1.14-4.45-.41-.73,1.17-1.07,1.89-1.06,.55,.01,.93,.16,1.35-.33,.53-.62,1.12-1.2,2.07-.61,.6,.38,.78-.32,1.1-.58,1.49-1.19,2.06-.93,2.74,.77,.44,1.11-.64,2.89,1.45,3.41,.26,.06-.51,1.09-1.05,1.44-.65,.42-1.29,.37-1.7-.4-.47-.87-.37-1.84-.54-2.77-.1-.52,.04-1.4-.85-1.24-.64,.11-.56,.82-.5,1.25"/>
      <path class="cls-4" d="M203.45,299.25c2.52-1.76,3-1.48,3.59,1.37,.14,.7-.72,2.42,1.27,2.21,.03,0,.19,.39,.12,.51-.39,.64-.88,1.21-1.66,1.39-.64,.15-1.12-.18-1.27-.73-.27-.97-.38-1.98-.58-2.97-.07-.36,.06-.93-.52-.93-.56,0-.82,.46-.75,.99,.14,1.14,.21,2.3,.52,3.39,.33,1.14-.46,1.29-1.12,1.5-1,.32-.88-.62-.97-1.1-.54-2.91-.53-5.91-1.47-8.77-.32-.98,.63-1.08,1.14-1.36,.76-.43,.93,.27,1.03,.78,.25,1.19,.43,2.38,.66,3.72"/>
      <path class="cls-4" d="M174.63,309.75c2.6-1.71,3.04-1.46,3.58,1.56,.15,.81-.38,2.22,1.38,2.27,.17,0-.53,1.05-1.04,1.42-.86,.62-1.61,.33-1.92-.6-.3-.89-.32-1.86-.51-2.78-.08-.4,.1-1.11-.66-.96-.53,.1-.68,.61-.61,1.13,.14,1,.19,2.03,.48,2.99,.33,1.07-.13,1.52-1.02,1.74-1.13,.29-.95-.69-1.05-1.25-.51-2.85-.53-5.78-1.43-8.57-.35-1.1,.68-1.22,1.26-1.46,.77-.32,.82,.48,.93,.96,.24,1.12,.4,2.25,.62,3.53"/>
      <path class="cls-4" d="M322.86,261.89c-.51,.37-.93,.71-1.38,1-1.06,.7-1.83,.38-2.15-.79-.38-1.36-.62-2.76-.93-4.13-.24-1.03,.65-1.06,1.2-1.28,.82-.34,.84,.37,.94,.89,.16,.86,.26,1.74,.47,2.59,.12,.51,.02,1.4,.93,1.19,.78-.18,.66-.91,.55-1.52-.12-.66-.19-1.36-.44-1.97-.62-1.52-.13-2.31,1.55-2.51,.43,2.09,.95,4.17,1.27,6.28,.27,1.74,.06,3.42-1.81,4.3-.5,.23-1.07,.37-1.51-.11-.51-.55-.23-1.09,.08-1.66,.39-.71,1.63-.91,1.24-2.28"/>
      <path class="cls-4" d="M241.07,281.39c1.3-.86,2.69-1.18,4.03-1.58,.62-.19,1.51-1.12,1.89-.26,.53,1.18-.8,1.11-1.48,1.29-1.03,.28-1.42,.8-1.21,1.88,.26,1.38,.39,2.75,2.33,1.53,.33-.21,.83-.3,.99,.25,.15,.53-.25,.7-.68,.77-2.25,.33-2.21,1.71-1.59,3.39,.12,.31,.11,.67,.23,.98,.47,1.24-.58,1.36-1.26,1.61-.95,.35-.89-.51-.99-1.06-.26-1.52-.49-3.05-.74-4.57-.25-1.49-.29-3.06-1.53-4.23"/>
      <path class="cls-4" d="M170.94,307.29c-.03,.64-.53,.7-.98,.79-1.07,.2-1.4,.8-1.15,1.87,.49,2.16,.4,4.44,1.14,6.55,.46,1.3-.33,1.79-1.29,1.97-1.16,.22-.96-.9-1.07-1.51-.35-1.99-.63-3.99-.86-6-.15-1.35-.5-2.12-1.94-1.11-.38,.27-.77,.66-1.16,.04-.36-.57,0-.91,.48-1.08,1.97-.7,3.95-1.36,5.93-2.04,.49-.17,.76,.07,.92,.51"/>
      <path class="cls-4" d="M267.34,281.57c-.09,1.39-.97,2.14-2.22,2.01-.81-.09-1.17,.19-1.69,.62-1.31,1.08-2.17,.75-2.59-.86-.35-1.34-.14-2.78-.93-4.08-.46-.77,.61-.75,1.05-1.02,.68-.42,1.16-.27,1.31,.54,.19,1.06,.29,2.13,.51,3.19,.07,.36-.15,1.11,.67,.92,.56-.13,.67-.61,.6-1.12-.13-.93-.16-1.9-.44-2.79-.37-1.16-.09-1.94,1.09-2.04,1.24-.11,.81,1.1,1,1.75,.22,.77,.32,1.58,.39,2.39,.08,1.09,.75,.62,1.28,.55l-.03-.04Z"/>
      <path class="cls-4" d="M221.01,298.19c.89-1.2,2.04-2.19,.07-3.42-.75-.47-.46-1.33-.24-2.04,.1-.32,.43-.57,.8-.48,.76,.19,1.05,.76,1.13,1.49,.18,1.77,.18,3.51-.95,5.03-.46,.62-1.02,1.15-1.84,1-.76-.13-1.01-.81-1.23-1.47-.43-1.26-.56-2.63-1.42-3.74-.59-.77,.25-.9,.66-1.09,.85-.39,1.52-.24,1.93,.76,.5,1.23,.11,2.69,1.11,3.94"/>
      <path class="cls-4" d="M283.22,276.39l-.38-.45c.67-.76-.04-1.36-.25-2.01-.72-2.24,.25-4.45,2.23-4.87,.92-.19,1.93-.3,2.37,.89,.14,.38,.18,.87-.24,1.08-1.12,.57-1.6-.32-2.12-1.44-.78,1.91-.55,3.36,.45,4.63,.87,1.1,1.56-.33,2.65-.63-.66,1.69-1.57,2.46-3.06,2.43-.59-.01-1.2-.2-1.65,.37"/>
      <path class="cls-4" d="M195.97,307.64c-.13-.15-.25-.3-.38-.45,.87-.63,.21-1.3,.05-1.95-.5-2.11,.5-4.13,2.31-4.51,.93-.2,1.94-.31,2.39,.87,.15,.38,.19,.87-.24,1.09-1.13,.57-1.6-.32-2.13-1.44-.77,1.92-.53,3.37,.47,4.65,.89,1.13,1.54-.48,2.6-.47-.78,1.79-1.93,2.51-3.66,2.16-.5-.1-.96-.55-1.42,.05"/>
      <path class="cls-4" d="M233.67,288.53c.14,.12,.28,.25,.42,.37,0,.59-.36,1.32-.75,1.29-2.5-.24-1.3,1.42-1.28,2.41,.01,.66,.27,1.31,.37,1.97,.13,.83-.57,.98-1.12,1.18-.75,.26-.84-.3-1.02-.84-.5-1.57-.09-3.36-1.29-4.8-.38-.46,.45-.69,.83-.79,1.12-.29,2.29-.38,3.24-1.18,.17-.14,.49,.1,.59,.39"/>
      <path class="cls-4" d="M212.17,301.83c-.31,.76-.81,1.3-1.51,1.59-.65,.27-1.23,.06-1.49-.61-.63-1.6-.22-3.44-1.33-4.99-.32-.45,.76-.7,1.26-.96,.48-.24,.92-.29,1.13,.32,.14,.38,.2,.78,.3,1.16,.35,1.25-.42,3.01,1.63,3.48"/>
      <path class="cls-4" d="M208.54,293.26c.72,.04,1.11,.44,1.08,1.02-.04,.71-.47,1.29-1.25,1.33-.71,.03-1.12-.41-1.09-1.14,.04-.81,.58-1.13,1.25-1.21"/>
      <path class="cls-4" d="M380.2,228.48c-.12-.27-.24-.55-.36-.82,.14-.55,.29-1.09,.43-1.64,.1-.13,.2-.14,.32-.02,.02,.85,.17,1.72-.39,2.48"/>
      <path class="cls-5" d="M380.59,226c-.11,.01-.21,.02-.32,.02,.13-.57,.27-1.15,.5-2.12,.26,1.01,.34,1.58-.18,2.1"/>
      <path class="cls-4" d="M253.97,25.93c-.02-.09-.02-.18-.02-.27,.43,.13,.86,.26,1.49,.46-.7,.29-1.13,.31-1.48-.19"/>
      <path class="cls-4" d="M148.45,236.55c.37-3.42,.81-6.83,1.09-10.26,.85-10.5,1.71-21,1.76-31.55,.02-3.64-1.4-6.2-4.41-8.06-2.12-1.31-2.09-2.65,.01-4.06,8.12-5.41,17.1-8.83,26.41-11.55,1.33-.39,1.89,.42,2.53,1.13,2.79,3.1,4.58,6.81,6.3,10.57,.53,1.16,1.1,2.3,1.66,3.46,3.46,9.21,6.94,18.42,10.37,27.64,1.27,3.42,2.55,6.83,4.21,10.07,.73,1.44,1.52,2.89,2.51,4.15,2.43,3.1,3.6,2.87,6.05,1.14,2.92-2.07,2.99-1.97,5.32,.74,1.99,2.32,2.01,2.34,0,4.72-4.7,5.58-10.25,9.95-17.32,12.15-4.32,1.35-7.91,.44-10.86-3.17-2.45-3-3.85-6.47-5.13-10.03-.64-1.78-1.27-3.56-1.8-5.37-.3-1.01-.84-1.26-1.77-1-5.22,1.46-10.23,3.4-14.9,6.19-1.03,.62-1.03,1.48-.99,2.43,.2,6,.28,12.02,.67,18.01,.29,4.52-.32,5.98-6.01,7.33-1.69,.4-3.48,.24-5.24,.06-1.36-.14-1.76-.75-1.73-2.1,.14-6.28,.61-12.55,1.12-18.81,.1-1.28,.11-2.56,.16-3.84"/>
      <path class="cls-4" d="M274.42,202.63c.16,3.37,.23,6.75,.49,10.11,.28,3.64-.68,5.23-4.16,6.35-2.23,.72-4.51,.61-6.81,.43-1.48-.12-2.03-.7-1.99-2.3,.18-7.84,.82-15.65,1.5-23.45,.92-10.76,2.06-21.51,2.39-32.31,.09-2.83,.09-5.67,.23-8.5,.18-3.62-1.43-6.19-4.38-8.1-2.15-1.39-2.14-2.69-.02-4.04,8.15-5.19,16.98-8.8,26.23-11.5,1.04-.3,1.64,0,2.3,.66,2.66,2.69,4.43,5.95,5.95,9.34,4.73,10.53,8.5,21.44,12.61,32.21,1.85,4.85,3.52,9.79,6.46,14.14,.49,.72,1.04,1.43,1.67,2.02,1.15,1.08,2.43,1.44,3.81,.34,.16-.13,.34-.23,.52-.31,1.27-.59,2.48-2.54,3.47-2.01,1.55,.85,2.54,2.71,3.77,4.15,.38,.45,.23,.88-.07,1.28-5.12,6.81-11.31,12.22-19.84,14.14-5.22,1.18-8.62-.83-11.57-6.01-2.22-3.9-3.54-8.16-4.9-12.39-.42-1.3-.98-1.7-2.32-1.31-4.81,1.39-9.42,3.26-13.81,5.67-1.26,.69-1.76,1.59-1.69,3.08,.14,2.76,.04,5.54,.04,8.31,.04,0,.08,0,.11,0"/>
      <path class="cls-4" d="M250.71,186.28c0,3.49-.08,3.46-2.81,4.05-5.77,1.25-11.17,3.54-16.55,5.92-.93,.41-.66,1-.56,1.65,1.4,9.56,3.1,19.06,6.23,28.23,.42,1.23,.32,1.98-.7,2.76-5.15,3.98-11.1,6.35-17.14,8.54-1.2,.44-1.17-.5-1.37-1.13-1.84-5.59-2.96-11.35-3.97-17.13-2.34-13.42-3.96-26.96-6.41-40.38-.98-5.36-3.11-9.5-8.16-11.93-1.66-.8-1.62-2.62-.07-3.56,7.5-4.59,15.78-7.28,24.06-9.98,7.44-2.42,14.89-4.78,22.15-7.73,.46-.19,1.02-.75,1.39,0,1.14,2.35,2.57,4.64,2.07,7.44-.46,2.59-2.54,3.63-4.67,4.28-5.29,1.61-10.64,3.01-15.97,4.51-2.82,.79-2.83,.81-2.28,3.62,1.31,6.69,2.2,13.46,3.14,20.21,.21,1.54,.64,1.55,1.89,.99,5.23-2.35,10.5-4.59,16.13-5.86,2.51-.57,2.74-.48,3.17,2.01,.23,1.33,.35,2.68,.46,3.49"/>
      <path class="cls-4" d="M107.82,277.14c-3.47-12.1-5.04-24.54-6.86-36.95-1.43-9.74-2.55-19.53-4.88-29.12-.44-1.83-1.05-2.06-2.68-1.31-4.07,1.87-8.06,3.84-11.33,6.95-.88,.83-1.45,.65-2.22,.04-2.41-1.93-4.23-4.31-5.69-7.03-.55-1.03,.06-1.27,.7-1.69,4.82-3.2,10.15-5.32,15.58-7.17,11.42-3.89,22.9-7.61,34.35-11.41,.89-.3,1.75-.71,2.63-1.05,3.34-1.33,3.22-1.27,4.81,2.05,2.87,5.96-.16,7.93-4.59,9.52-.25,.09-.53,.12-.79,.18-3.14,.76-6.27,1.59-9.44,2.25-1.63,.34-1.84,.95-1.57,2.6,1.77,10.92,3.35,21.87,5,32.81,.04,.27,.12,.52,.19,.78,1.32,9.42,3.09,18.75,5.97,27.83,.39,1.24,.2,1.95-.77,2.76-4.24,3.51-9.3,5.41-14.29,7.46-.93,.38-1.93,.61-2.86,1-.65,.27-1.02,.13-1.27-.49"/>
      <path class="cls-4" d="M319.86,314.36c-3.83,3.44-8.12,6.08-12.33,8.83-11.4,7.45-24.54,10.67-36.98,15.61-11.25,4.46-23.05,5.97-34.97,6.92-.33,.03-.67,0-1.1-.3,28.46-10.35,56.92-20.71,85.38-31.06"/>
      <path class="cls-4" d="M259.86,284.29c-1.81,3.24-3.64,3.03-5.85-.59-.15,2.17,.09,4.57-2.69,4.99-1.42,.21-2.08-1.02-2.47-2.24-.63-1.97,.02-3.54,1.55-4.57,1.58-1.06,2.58-.51,3.35,.93,.8-.31,.69-1.05,.98-1.54,.55-.92,1.26-1.58,2.35-1.71,.91-.11,1.8-.1,2.12,1.02,.11,.39,.13,.82-.36,1.03-1.12,.47-1.49-.41-1.95-1.42-.95,1.79-.59,3.23,.33,4.52,.89,1.24,1.56-.33,2.64-.42m-9.06-1.75c-.21,1.23-.22,2.1,.07,2.94,.23,.68,.38,1.58,1.3,1.54,.68-.03,.89-.73,.95-1.36,.08-.74,.23-1.46-.98-1.43-.75,.02-.9-.83-1.35-1.69"/>
      <path class="cls-4" d="M195.97,307.64c-1.75,2.22-2.54,2.19-3.76-.06-.24-.44-.18-1.43-1.12-1.03-.8,.34-1.98,.29-2.06,1.59-.03,.4,.05,.82-.04,1.21-.13,.63,.46,1.82-.66,1.74-.99-.07-.5-1.22-.47-1.86,.13-2.55,.84-5.13,.33-7.63-.23-1.14-.07-1.47,.78-1.96,1.6-.93,2.58-.58,3.16,1.2,.52,1.59,1.12,3.17,1.82,4.7,.32,.7,.35,1.86,1.64,1.67,.4-.08,.53,.06,.38,.45m-6.43-6.43c-.1,1.29-.19,2.36-.28,3.44-.03,.43-.41,1.06,.17,1.22,.44,.12,1.04-.15,1.52-.35,.7-.3,.25-.82,.1-1.2-.39-.98-.51-2.09-1.52-3.11"/>
      <path class="cls-4" d="M283.22,276.39c-1.74,2.2-2.53,2.18-3.77-.07-.24-.44-.19-1.43-1.13-1.02-.8,.35-1.98,.3-2.05,1.6-.02,.34,.05,.69-.04,1.01-.19,.68,.56,1.96-.68,1.92-.96-.03-.45-1.21-.46-1.87-.03-2.85,1-5.64,.1-8.57-.26-.84,1.36-1.04,2.17-1.45,.78-.39,1.26,0,1.56,.74,.72,1.81,1.4,3.64,2.21,5.41,.35,.76,.34,1.99,1.71,1.86,.34-.03,.56,.03,.38,.45m-6.43-6.42c-.1,1.29-.19,2.36-.28,3.44-.03,.43-.41,1.06,.18,1.22,.45,.12,1.04-.15,1.52-.36,.7-.3,.24-.82,.09-1.2-.39-.98-.51-2.09-1.52-3.1"/>
      <path class="cls-4" d="M294.94,267.74c.15-1.17,.3-2.53,1.61-2.77,1.9-.34,1.78-1.33,1.29-2.67-.14-.38-.19-.78-.33-1.16-.39-1.04,.41-1.29,1.07-1.58,1-.44,.98,.55,1.08,.99,.5,2.29,.86,4.62,1.34,6.92,.11,.51-.13,1.49,1.04,1.2,.36-.09,.41,.25,.26,.52-.34,.59-.76,1.33-1.43,1.31-1.11-.03-1.91,.36-2.76,.98-.77,.56-1.56,.19-2.1-.55-.69-.95-.97-2.05-1.06-3.2m4.13,1.03c-.16-.86-.32-1.71-.46-2.57-.07-.44-.21-.79-.72-.77-.48,.02-.7,.38-.81,.78-.27,1.03,.07,2,.4,2.95,.14,.41,.3,1,.91,.88,.66-.13,.76-.67,.68-1.26"/>
      <path class="cls-4" d="M323.24,263.7c-.19,.86-.33,1.35-1.01,1.54-.28-.78,.15-1.11,1.01-1.54"/>
      <path class="cls-4" d="M288.08,270.24c-.01-2.15,2.35-4.03,4.56-3.71,.81,.12,.55,.74,.79,1.15,.64,1.13-.54,3.06,1.72,3.63,.39,.1-.72,1.58-1.58,1.71-.81,.12-1.45,.3-2.13,.79-1.01,.73-1.94,.31-2.53-.7-.51-.87-.79-1.84-.82-2.87m2.01-.42c.12,.46,.26,1.18,.53,1.86,.16,.4,.43,.91,1.02,.72,.61-.2,.47-.69,.36-1.17-.15-.65-.21-1.32-.38-1.96-.14-.51,.11-1.45-.76-1.35-.84,.09-.74,.96-.77,1.9"/>
      <path class="cls-4" d="M229.22,295.14c-1.02,1.85-2.11,2.8-3.87,2.29-1.28-.37-2.12-2.57-1.76-4.16,.38-1.67,2.01-3.01,3.46-2.84,1.28,.16,1.85,1.53,1.13,2.8-.16,.29-.51,.48-.62,.78-.25,.68-1.91,.53-1.16,1.65,.85,1.26,1.55-.25,2.83-.53m-3.5-.77c1.01-.74,1.25-1.49,.75-2.45-.16-.3-.45-.62-.75-.28-.77,.83-.17,1.69,0,2.74"/>
      <path class="cls-4" d="M307.74,266.81c-.48,1.56-1.5,2.25-2.77,2.39-1.24,.14-1.92-.77-2.37-1.84-.85-2,0-4.41,1.86-5.11,.83-.31,1.75-.52,2.39,.37,.57,.8,.47,1.66-.11,2.44-.24,.32-.62,.55-.82,.88-.28,.45-1.61,.41-.76,1.4,.71,.82,1.3,.25,1.86-.29,.11-.11,.32-.11,.72-.23m-3.3-.86c1.07-.78,1.26-1.56,.7-2.53-.14-.25-.4-.47-.64-.24-.89,.84-.21,1.7-.06,2.77"/>
      <path class="cls-4" d="M217.34,299.8c-.91,1.58-1.91,2.63-3.71,2.11-1.36-.39-2.23-2.68-1.78-4.32,.47-1.7,2.17-2.96,3.57-2.65,1.33,.29,1.71,1.81,.74,3.08-.28,.37-.67,.66-1.01,.98-.33,.32-1.18,.4-.57,1.15,.46,.57,1.01,.6,1.58,.09,.23-.21,.38-.58,1.17-.44m-3.5-.91c1.05-.74,1.35-1.44,.92-2.39-.14-.3-.37-.73-.72-.46-.92,.7-.23,1.6-.19,2.85"/>
      <path class="cls-4" d="M184.83,311.69c-.88,1.53-1.96,2.5-3.73,1.97-1.26-.38-2.11-2.61-1.74-4.17,.39-1.67,2.03-3,3.47-2.82,1.28,.17,1.85,1.55,1.1,2.81-.27,.45-.74,.77-1.08,1.19-.31,.38-1.41,.38-.7,1.26,.55,.69,1.16,.51,1.72-.08,.17-.18,.33-.45,.96-.17m-3.35-1.1c1.07-.78,1.26-1.56,.7-2.53-.14-.25-.4-.47-.64-.24-.89,.84-.21,1.7-.06,2.77"/>
      <path class="cls-4" d="M233.67,288.53c1-.27,1.26-1.5,2.34-1.72,.69-.14,1.76-.36,1.8,.21,.11,1.66,1.46,2.79,1.6,4.31,.13,1.51-2.4,2.95-3.79,2.3-.48-.22-.78-.51-.48-1.1,.26-.5,.49-1.05,1.18-.8,.48,.18,.9,.5,1.87,1.06-.98-2.27-3.3-2.31-4.11-3.9-.36,.13-.46-.05-.42-.37m3.74-.36c0-.41-.05-.84-.6-.8-.32,.02-.64,.21-.65,.61-.01,.41,.33,.53,.63,.66,.48,.22,.53-.16,.63-.47"/>
      <path class="cls-4" d="M267.38,281.61q.7-1.96,3.04-.93c-.34-1.31-1.44-1.56-2.3-2.11-.78-.5-1.76-.97-1.21-2.18,.5-1.1,1.51-1.44,2.63-1.54,.06,0,.13,.03,.19,.05,.56,.18,1.04,.55,.89,1.16-.45,1.82,3.21,3.66-.04,5.45-1.07,.59-2.14,.74-3.24,.07l.03,.04m2.51-5.31c-.04-.31-.07-.66-.51-.69-.37-.02-.69,.18-.75,.51-.09,.49,.34,.69,.72,.79,.47,.12,.48-.28,.54-.61"/>
      <path class="cls-4" d="M160.69,201.68c0-2.73,0-7.52,0-12.31,0-.76-.1-1.55,.84-1.81,1.07-.3,1.19,.72,1.49,1.29,3.94,7.35,6.32,15.3,8.97,23.15,.54,1.6,.97,3.23,1.56,4.8,.43,1.16,.08,1.66-1.05,2.04-3.7,1.26-7.4,2.54-11.03,3.96-1.58,.62-1.65-.02-1.6-1.27,.27-5.93,.5-11.86,.83-19.86"/>
      <path class="cls-4" d="M275.52,155.38c0-2.57,0-5.13,0-7.7,0-.8-.21-1.75,.89-1.96,1.01-.19,1.13,.85,1.44,1.42,2.71,4.92,4.53,10.22,6.36,15.5,1.43,4.14,2.73,8.32,4.13,12.47,.35,1.03,.18,1.51-.94,1.88-3.77,1.26-7.52,2.59-11.22,4.04-1.47,.58-1.56,.04-1.51-1.18,.32-8.16,.61-16.32,.91-24.48-.02,0-.04,0-.05,0"/>
    </g>
    <g>
      <circle class="cls-1" cx="318.38" cy="150.13" r="46.01"/>
      <path class="cls-3" d="M287.06,117.45c.65-.51,1.47-.78,2.21-.95,.84-.19,1.8-.32,2.5-.11l65.26,21.31c1.64,.44,2.89,1.61,3.2,2.98s-.35,2.88-1.63,3.98l-49.78,47.34c-1.33,.93-3.11,1.33-4.71,1.06-1.64-.44-2.89-1.61-3.2-2.98l-15.48-68.65c-.31-1.38,.34-2.88,1.63-3.98h0Z"/>
    </g>
    <g>
      <path class="cls-1" d="M215,183.68c-.17,3-.25,2.97-2.62,3.34-5.01,.78-9.77,2.48-14.51,4.25-.82,.31-.61,.82-.56,1.39,.72,8.28,1.7,16.52,3.93,24.55,.3,1.08,.17,1.71-.74,2.34-4.63,3.16-9.85,4.89-15.15,6.47-1.05,.31-.98-.49-1.12-1.04-1.3-4.89-1.97-9.9-2.55-14.91-1.34-11.65-2.04-23.35-3.47-34.99-.57-4.65-2.19-8.31-6.41-10.65-1.38-.77-1.26-2.33,.12-3.06,6.67-3.56,13.91-5.46,21.17-7.36,6.51-1.7,13.03-3.36,19.41-5.52,.4-.14,.92-.59,1.19,.07,.86,2.07,1.97,4.12,1.41,6.49-.53,2.2-2.36,2.99-4.23,3.44-4.62,1.12-9.29,2.05-13.94,3.07-2.47,.54-2.47,.55-2.14,2.99,.79,5.81,1.21,11.67,1.67,17.51,.11,1.34,.47,1.36,1.57,.95,4.61-1.76,9.25-3.41,14.15-4.22,2.18-.36,2.38-.27,2.62,1.88,.13,1.15,.17,2.32,.22,3.02"/>
      <path class="cls-1" d="M87.73,254.49c-2.37-10.56-3.09-21.33-4.03-32.07-.74-8.43-1.21-16.9-2.72-25.25-.29-1.59-.8-1.82-2.24-1.26-3.58,1.4-7.11,2.89-10.08,5.4-.79,.67-1.28,.49-1.91-.08-1.98-1.78-3.42-3.92-4.53-6.32-.42-.91,.12-1.09,.68-1.42,4.3-2.5,8.99-4.06,13.74-5.37,10-2.76,20.05-5.38,30.07-8.07,.78-.21,1.54-.52,2.31-.77,2.93-.97,2.82-.93,4.03,2,2.16,5.26-.53,6.8-4.42,7.94-.22,.06-.46,.07-.69,.11-2.74,.49-5.47,1.05-8.22,1.45-1.42,.21-1.63,.72-1.48,2.16,.97,9.47,1.78,18.95,2.64,28.43,.02,.23,.08,.46,.12,.68,.66,8.15,1.71,16.25,3.72,24.2,.27,1.08,.07,1.69-.8,2.33-3.81,2.8-8.26,4.17-12.65,5.68-.82,.28-1.69,.43-2.5,.72-.57,.2-.88,.06-1.06-.48"/>
      <path class="cls-1" d="M124.66,221.69c.49-2.92,1.04-5.83,1.45-8.75,1.26-8.97,2.53-17.95,3.1-27.01,.2-3.13-.89-5.39-3.38-7.14-1.76-1.23-1.67-2.38,.22-3.48,7.25-4.24,15.13-6.72,23.26-8.59,1.16-.27,1.61,.45,2.12,1.1,2.24,2.8,3.59,6.08,4.88,9.39,.4,1.02,.83,2.03,1.25,3.05,2.51,8.09,5.03,16.17,7.51,24.26,.92,3,1.85,5.99,3.11,8.86,.56,1.27,1.16,2.55,1.94,3.69,1.93,2.78,2.95,2.64,5.14,1.28,2.61-1.63,2.66-1.54,4.53,.9,1.59,2.09,1.61,2.11-.24,4.06-4.31,4.55-9.3,8.03-15.48,9.56-3.78,.94-6.82-.02-9.16-3.26-1.95-2.7-2.98-5.75-3.9-8.87-.46-1.56-.91-3.12-1.27-4.7-.2-.88-.66-1.12-1.47-.95-4.56,.99-8.96,2.4-13.11,4.57-.92,.48-.96,1.22-.98,2.04-.13,5.17-.37,10.33-.34,15.5,.02,3.89-.57,5.12-5.53,5.99-1.47,.26-3,.03-4.5-.21-1.16-.19-1.48-.74-1.38-1.89,.44-5.39,1.16-10.74,1.91-16.09,.15-1.09,.22-2.19,.33-3.29m12.27-29.33c-.69,6.85-1.19,11.93-1.72,17.01-.11,1.07-.08,1.62,1.31,1.17,3.2-1.04,6.43-1.95,9.67-2.85,.99-.27,1.32-.68,1.01-1.7-.43-1.38-.72-2.81-1.1-4.2-1.88-6.88-3.53-13.82-6.54-20.33-.23-.51-.28-1.38-1.22-1.18-.82,.18-.78,.86-.81,1.51-.23,4.12-.47,8.23-.61,10.57"/>
      <path class="cls-1" d="M234.54,198.91c-.03,2.9-.14,5.81-.08,8.71,.06,3.14-.85,4.46-3.89,5.24-1.95,.5-3.91,.3-5.87,.03-1.27-.18-1.7-.7-1.59-2.07,.55-6.72,1.5-13.4,2.47-20.06,1.34-9.2,2.85-18.36,3.68-27.63,.22-2.43,.36-4.86,.63-7.29,.34-3.1-.92-5.39-3.36-7.17-1.78-1.3-1.7-2.42,.18-3.47,7.26-4.05,15.03-6.7,23.1-8.55,.91-.21,1.4,.08,1.94,.68,2.14,2.44,3.51,5.33,4.64,8.32,3.53,9.28,6.22,18.83,9.2,28.29,1.35,4.26,2.53,8.58,4.84,12.47,.38,.64,.82,1.28,1.33,1.82,.93,.99,2.02,1.36,3.26,.48,.14-.1,.3-.18,.46-.24,1.12-.44,2.26-2.06,3.08-1.55,1.29,.81,2.05,2.46,3.03,3.75,.31,.41,.15,.76-.13,1.1-4.74,5.59-10.33,9.92-17.75,11.14-4.55,.75-7.36-1.14-9.63-5.75-1.71-3.46-2.63-7.18-3.58-10.89-.29-1.14-.75-1.51-1.92-1.24-4.2,.95-8.25,2.32-12.15,4.18-1.12,.53-1.59,1.27-1.61,2.56-.02,2.38-.24,4.76-.38,7.14,.03,0,.06,0,.1,0m3.33-40.52s.03,0,.05,0c-.67,6.99-1.32,13.98-2.01,20.97-.1,1.04-.05,1.51,1.24,1.09,3.25-1.06,6.54-2.01,9.84-2.91,.98-.27,1.15-.67,.91-1.57-.99-3.63-1.9-7.29-2.92-10.91-1.31-4.63-2.6-9.27-4.68-13.63-.24-.51-.29-1.4-1.17-1.29-.95,.12-.83,.95-.86,1.64-.12,2.2-.26,4.41-.39,6.61"/>
    </g>
    <text class="cls-2" transform="translate(211.45 251.87) rotate(-18.94)"><tspan x="0" y="0">Player</tspan></text>
  </g>
</svg>